<svg xmlns="http://www.w3.org/2000/svg" xmlns:xlink="http://www.w3.org/1999/xlink" version="1.1" x="0px" y="0px" viewBox="0 0 110 137.5" enable-background="new 0 0 110 110" xml:space="preserve"><g><polygon points="33.75,14.479 32.5,14.479 32.5,9.063 29.75,9.063 29.75,14.479 28.5,14.479 28.5,21.5 33.75,21.5  "/><polygon points="45.688,14.479 44.438,14.479 44.438,9.063 41.688,9.063 41.688,14.479 40.438,14.479 40.438,21.5 45.688,21.5  "/><polygon points="57.625,14.479 56.375,14.479 56.375,9.063 53.625,9.063 53.625,14.479 52.375,14.479 52.375,21.5 57.625,21.5  "/><polygon points="69.563,14.479 68.313,14.479 68.313,9.063 65.563,9.063 65.563,14.479 64.313,14.479 64.313,21.5 69.563,21.5  "/><polygon points="81.5,14.479 80.25,14.479 80.25,9.063 77.5,9.063 77.5,14.479 76.25,14.479 76.25,21.5 81.5,21.5  "/><polygon points="28.5,95.521 29.75,95.521 29.75,100.938 32.5,100.938 32.5,95.521 33.75,95.521 33.75,88.5 28.5,88.5  "/><polygon points="40.438,95.521 41.688,95.521 41.688,100.938 44.438,100.938 44.438,95.521 45.688,95.521 45.688,88.5 40.438,88.5     "/><polygon points="52.375,95.521 53.625,95.521 53.625,100.938 56.375,100.938 56.375,95.521 57.625,95.521 57.625,88.5 52.375,88.5     "/><polygon points="64.313,95.521 65.563,95.521 65.563,100.938 68.313,100.938 68.313,95.521 69.563,95.521 69.563,88.5 64.313,88.5     "/><polygon points="76.25,95.521 77.5,95.521 77.5,100.938 80.25,100.938 80.25,95.521 81.5,95.521 81.5,88.5 76.25,88.5  "/><polygon points="14.479,77.5 9.063,77.5 9.063,80.25 14.479,80.25 14.479,81.5 21.5,81.5 21.5,76.25 14.479,76.25  "/><polygon points="14.479,65.563 9.063,65.563 9.063,68.313 14.479,68.313 14.479,69.563 21.5,69.563 21.5,64.313 14.479,64.313  "/><polygon points="14.479,53.625 9.063,53.625 9.063,56.375 14.479,56.375 14.479,57.625 21.5,57.625 21.5,52.375 14.479,52.375  "/><polygon points="14.479,41.688 9.063,41.688 9.063,44.438 14.479,44.438 14.479,45.688 21.5,45.688 21.5,40.438 14.479,40.438  "/><polygon points="14.479,29.75 9.063,29.75 9.063,32.5 14.479,32.5 14.479,33.75 21.5,33.75 21.5,28.5 14.479,28.5  "/><polygon points="95.521,76.25 88.5,76.25 88.5,81.5 95.521,81.5 95.521,80.25 100.938,80.25 100.938,77.5 95.521,77.5  "/><polygon points="95.521,64.313 88.5,64.313 88.5,69.563 95.521,69.563 95.521,68.313 100.938,68.313 100.938,65.563 95.521,65.563     "/><polygon points="95.521,52.375 88.5,52.375 88.5,57.625 95.521,57.625 95.521,56.375 100.938,56.375 100.938,53.625 95.521,53.625     "/><polygon points="95.521,40.438 88.5,40.438 88.5,45.688 95.521,45.688 95.521,44.438 100.938,44.438 100.938,41.688 95.521,41.688     "/><polygon points="95.521,29.75 95.521,28.5 88.5,28.5 88.5,33.75 95.521,33.75 95.521,32.5 100.938,32.5 100.938,29.75  "/><path d="M83.5,23.5h-57c-1.66,0-3,1.34-3,3v57c0,1.66,1.34,3,3,3h57c1.66,0,3-1.34,3-3v-57C86.5,24.84,85.16,23.5,83.5,23.5z    M32.78,58.78c-1.57,0-2.85-1.34-2.85-2.98V42.41c0-1.63,1.28-2.97,2.85-2.97h27.14c1.58,0,2.86,1.34,2.86,2.97V55.8   c0,1.641-1.28,2.98-2.86,2.98H40.64l-7.86,5.21l1.43-5.21H32.78z M80.07,62.38c0,1.64-1.28,2.97-2.851,2.97h-1.43l1.43,5.21   l-7.859-5.21H50.08c-1.58,0-2.86-1.33-2.86-2.97v-1.6h12.7c2.68,0,4.86-2.23,4.86-4.98v-9.79H77.22c1.57,0,2.851,1.34,2.851,2.98   V62.38z"/></g><text x="0" y="125" fill="#000000" font-size="5px" font-weight="bold" font-family="'Helvetica Neue', Helvetica, Arial-Unicode, Arial, Sans-serif">Created by Trevor Dsouza</text><text x="0" y="130" fill="#000000" font-size="5px" font-weight="bold" font-family="'Helvetica Neue', Helvetica, Arial-Unicode, Arial, Sans-serif">from the Noun Project</text></svg>